<svg width="532" height="103" viewBox="0 0 532 103" fill="none" xmlns="http://www.w3.org/2000/svg">
<path d="M243.766 87V21.9H274.549C284.5 21.9 291.382 24.504 295.753 28.968C299.566 32.688 301.519 37.71 301.519 44.127V44.313C301.519 54.264 296.218 60.867 288.127 64.308L303.658 87H282.826L269.713 67.284H269.527H261.808V87H243.766ZM261.808 53.148H273.712C279.85 53.148 283.384 50.172 283.384 45.429V45.243C283.384 40.128 279.664 37.524 273.619 37.524H261.808V53.148ZM326.513 87V37.71H306.983V21.9H364.085V37.71H344.555V87H326.513ZM372.376 87V21.9H390.511V87H372.376ZM402.429 87V21.9H454.509V37.71H420.471V48.777H451.254V63.75H420.471V87H402.429ZM481.52 87V62.634L456.782 21.9H477.335L490.727 45.615L504.212 21.9H524.393L499.655 62.355V87H481.52Z" fill="black"/>
<path d="M36.341 88.116C24.809 88.116 13.835 84.489 5.837 77.328L15.881 65.331C22.298 70.446 29.459 73.143 36.992 73.143C41.828 73.143 44.432 71.469 44.432 68.679V68.493C44.432 65.796 42.293 64.308 33.458 62.262C19.601 59.1 8.906 55.194 8.906 41.802V41.616C8.906 29.526 18.485 20.784 34.109 20.784C45.176 20.784 53.825 23.76 60.893 29.433L51.872 42.174C45.92 37.989 39.41 35.757 33.644 35.757C29.273 35.757 27.134 37.617 27.134 39.942V40.128C27.134 43.104 29.366 44.406 38.387 46.452C53.36 49.707 62.66 54.543 62.66 66.726V66.912C62.66 80.211 52.151 88.116 36.341 88.116ZM71.434 87V21.9H99.334C115.795 21.9 126.397 30.363 126.397 44.778V44.964C126.397 60.309 114.586 68.4 98.404 68.4H89.476V87H71.434ZM89.476 54.264H98.032C104.449 54.264 108.355 50.916 108.355 45.801V45.615C108.355 40.035 104.449 37.059 97.939 37.059H89.476V54.264Z" fill="black"/>
<path fill-rule="evenodd" clip-rule="evenodd" d="M184.95 99.1987C184.801 99.2 184.65 99.2008 184.5 99.2008C176.494 99.2008 168.949 97.2286 162.323 93.7431L179.604 96.8339L184.95 99.1987ZM212.424 90.1773C223.29 82.3189 230.713 69.9944 232.001 55.8961C227.727 58.9759 222.4 61.4733 222.4 61.4733L222.361 61.4602L210.8 82.8867C210.899 83.1674 212.267 87.0928 212.424 90.1773ZM227.801 31.4623C222.735 20.5343 213.654 11.8465 202.453 7.29282V9.27051L218.001 26.7626C221.888 27.6747 226.442 30.5614 227.801 31.4623ZM140.334 69.5529C141.915 70.9273 144.295 72.8434 146.166 73.6944L155.305 59.4783C155.305 59.4783 153.129 51.6807 153.491 40.6192L153.581 40.4847L153.491 40.4379L141.833 33.5888L141.704 33.7284C141.704 33.7284 140.284 35.1489 138.825 37.702C137.507 42.07 136.799 46.7025 136.799 51.5C136.799 57.889 138.055 63.9841 140.334 69.5529ZM146.931 22.1038C145.563 24.8919 143.75 28.9698 143.813 30.8958L155.365 37.8544C156.049 37.3483 162.541 32.6458 172.576 28.8833L178.569 11.4332L178.516 11.4238C176.164 9.07156 171.189 6.95769 169.391 6.24176C160.423 9.23429 152.64 14.8177 146.931 22.1038ZM236 51.5C236 79.9428 212.943 103 184.5 103C156.057 103 133 79.9428 133 51.5C133 23.0574 156.057 0 184.5 0C212.943 0 236 23.0574 236 51.5ZM199.733 10.8798L199.816 10.8409L215.028 28.0709L214.965 28.1069L210.069 41.7072V41.8616L187.246 44.0207C184.037 39.4305 175.615 31.0083 175.615 31.0083L175.403 30.8501L175.433 30.827L181.783 11.9372C183.057 11.7297 190.79 10.5486 199.733 10.8798ZM187.059 47.3268L210.174 45.1254C211.01 46.3555 216.622 54.6871 219.136 60.385L219.172 60.3973L208.071 81.058C207.879 81.0965 198.931 82.866 189.617 82.8711L189.577 82.6896L178.68 63.4227L187.039 47.51L187.059 47.3268ZM176.077 65.9981L186.884 84.7082C186.056 85.8032 182.133 91.0001 180.372 93.4392C172.804 92.2276 161.094 90.3373 157.174 89.6522L157.118 89.5805C151.678 83.5963 148.414 76.3428 148.414 76.3428L148.378 76.2968L157.43 62.1347L157.481 62.1985C165.053 64.7798 175.075 65.8913 176.077 65.9981Z" fill="black"/>
</svg>
